# xmcd
#
# Track frame offsets:
#	150
#	19700
#	36240
#	52285
#	70815
#	92647
#	106830
#	125607
#	145127
#	162330
#	180422
#	197412
#
# Disc length: 2843 seconds
#
# Revision: 11
# Processed by: cddbd v1.5.2PL0 Copyright (c) Steve Scherf et al.
# Submitted via: EZCDAudioConverter 8.2.2.1
#
DISCID=a10b190c
DTITLE=ZEZÉ DI CAMARGO and LUCIANO - SAUDADE BANDIDA [CD 850.204/2-464435) COLUM
DTITLE=BIA
DYEAR=1993
DGENRE=SERTANEJO
TTITLE0=SAUDADE BANDIDA (BY GILMAR SINISTRO)
TTITLE1=FAZER AMOR (BY GILMAR SINISTRO)
TTITLE2=ANDORINHA MACHUCADA (BY GILMAR SINISTRO)
TTITLE3=QUATRO ESTAÇÕES (BY GILMAR SINISTRO)
TTITLE4=TUDO DE NOVO (BY GILMAR SINISTRO)
TTITLE5=VÁ EMBORA (BY GILMAR SINISTRO)
TTITLE6=FAZ MAIS UMA VEZ COMIGO (BY GILMAR SINISTRO)
TTITLE7=MELHOR QUE ANTES (BY GILMAR SINISTRO)
TTITLE8=EU SÓ PENSO EM VOÇÊ (ALWAYS ON MY MIND) PART. ESP. WILLIE NELSON (BY G
TTITLE8=ILMAR SINISTRO)
TTITLE9=OLHOS DE LUA (BY GILMAR SINISTRO)
TTITLE10=MAIS DO QUE EU (BY GILMAR SINISTRO)
TTITLE11=PEDAÇO DE MIM (BY GILMAR SINISTRO)
EXTD=
EXTT0=
EXTT1=
EXTT2=
EXTT3=
EXTT4=
EXTT5=
EXTT6=
EXTT7=
EXTT8=
EXTT9=
EXTT10=
EXTT11=
PLAYORDER=
